<svg id="Capa_1" enable-background="new 0 0 512 512" height="512" viewBox="0 0 512 512" width="512" xmlns="http://www.w3.org/2000/svg"><g><path d="m466 362c-8.284 0-15-6.716-15-15s6.716-15 15-15c8.822 0 16-7.178 16-16v-221c0-35.841-29.159-65-65-65h-81c-35.841 0-65 29.159-65 65 0 52.383-42.617 95-95 95h-81c-35.841 0-65 29.159-65 65v61c0 8.822 7.178 16 16 16 8.284 0 15 6.716 15 15s-6.716 15-15 15c-25.364 0-46-20.636-46-46v-61c0-52.383 42.617-95 95-95h81c35.841 0 65-29.159 65-65 0-52.383 42.617-95 95-95h81c52.383 0 95 42.617 95 95v221c0 25.364-20.636 46-46 46z" fill="#fff5f5"/><g><path d="m466 332c-8.284 0-15 6.716-15 15s6.716 15 15 15c25.364 0 46-20.636 46-46v-221c0-52.383-42.617-95-95-95h-81c-33.549 0-63.093 17.482-80 43.814v102.372c9.491-14.782 15-32.353 15-51.186 0-35.841 29.159-65 65-65h81c35.841 0 65 29.159 65 65v221c0 8.822-7.178 16-16 16z" fill="#e1e1e6"/></g><path d="m497 512c-8.284 0-15-6.716-15-15 0-18.698-8.245-36.178-22.761-48.548l-173.947-16.452h-58.584l-173.947 16.452c-14.515 12.37-22.761 29.85-22.761 48.548 0 8.284-6.716 15-15 15-8.284 0-15-6.716-15-15 0-29.51 13.794-56.856 37.845-75.027l3.395-2.565 184.052-17.408h61.416l184.052 17.407 3.395 2.565c24.051 18.172 37.845 45.518 37.845 75.028 0 8.284-6.716 15-15 15z" fill="#ffd845"/><path d="m285.292 432 173.947 16.452c14.516 12.37 22.761 29.85 22.761 48.548 0 8.284 6.716 15 15 15s15-6.716 15-15c0-29.51-13.794-56.856-37.846-75.027l-3.395-2.565-184.051-17.408h-30.708v30z" fill="#ff9f22"/><path d="m196 457h-120c-16.569 0-30-13.431-30-30v-80c0-16.569 13.431-30 30-30h120c16.569 0 30 13.431 30 30v80c0 16.569-13.431 30-30 30z" fill="#8bb9ff"/><path d="m436 457h-120c-16.569 0-30-13.431-30-30v-80c0-16.569 13.431-30 30-30h120c16.569 0 30 13.431 30 30v80c0 16.569-13.431 30-30 30z" fill="#8bb9ff"/><path d="m256 312c-16.459 0-32.037 9.87-42.738 27.079l25.477 15.842c5.105-8.212 11.397-12.921 17.261-12.921s12.156 4.709 17.262 12.921l25.477-15.842c-10.702-17.209-26.279-27.079-42.739-27.079z" fill="#ffd845"/><path d="m273.262 354.921 25.477-15.842c-10.702-17.209-26.279-27.079-42.739-27.079v30c5.864 0 12.156 4.709 17.262 12.921z" fill="#ff9f22"/><path d="m196 472h-120c-24.813 0-45-20.187-45-45v-80c0-24.813 20.187-45 45-45h120c24.813 0 45 20.187 45 45v80c0 24.813-20.187 45-45 45zm-120-140c-8.271 0-15 6.729-15 15v80c0 8.271 6.729 15 15 15h120c8.271 0 15-6.729 15-15v-80c0-8.271-6.729-15-15-15z" fill="#fff5f5"/><path d="m436 472h-120c-24.813 0-45-20.187-45-45v-80c0-24.813 20.187-45 45-45h120c24.813 0 45 20.187 45 45v80c0 24.813-20.187 45-45 45zm-120-140c-8.271 0-15 6.729-15 15v80c0 8.271 6.729 15 15 15h120c8.271 0 15-6.729 15-15v-80c0-8.271-6.729-15-15-15z" fill="#fff5f5"/><g><path d="m196 457h-120c-16.569 0-30-13.431-30-30v-80c0-16.569 13.431-30 30-30h120c16.569 0 30 13.431 30 30v80c0 16.569-13.431 30-30 30z" fill="#0a789b"/><path d="m436 457h-120c-16.569 0-30-13.431-30-30v-80c0-16.569 13.431-30 30-30h120c16.569 0 30 13.431 30 30v80c0 16.569-13.431 30-30 30z" fill="#08475e"/><path d="m196 472h-120c-24.813 0-45-20.187-45-45v-80c0-24.813 20.187-45 45-45h120c24.813 0 45 20.187 45 45v80c0 24.813-20.187 45-45 45zm-120-140c-8.271 0-15 6.729-15 15v80c0 8.271 6.729 15 15 15h120c8.271 0 15-6.729 15-15v-80c0-8.271-6.729-15-15-15z" fill="#fff16b"/><path d="m436 472h-120c-24.813 0-45-20.187-45-45v-80c0-24.813 20.187-45 45-45h120c24.813 0 45 20.187 45 45v80c0 24.813-20.187 45-45 45zm-120-140c-8.271 0-15 6.729-15 15v80c0 8.271 6.729 15 15 15h120c8.271 0 15-6.729 15-15v-80c0-8.271-6.729-15-15-15z" fill="#ffd845"/></g></g></svg>